<svg width="28" height="28" viewBox="0 0 28 28" fill="none" xmlns="http://www.w3.org/2000/svg">
<g clip-path="url(#clip0_695_20389)">
<path fill-rule="evenodd" clip-rule="evenodd" d="M14 28C21.732 28 28 21.732 28 14C28 6.26801 21.732 0 14 0C6.26801 0 0 6.26801 0 14C0 21.732 6.26801 28 14 28Z" fill="#79FF39"/>
<path fill-rule="evenodd" clip-rule="evenodd" d="M13.9998 5.08667L17.5558 10.632L13.9998 16.1933L10.4438 10.632L13.9998 5.08667Z" fill="black"/>
<path d="M25.2467 14.0038C25.2467 14.0025 25.2467 14.0012 25.2467 14H25.2467C25.2441 13.7058 25.0049 13.468 24.7101 13.468C24.4152 13.468 24.176 13.7058 24.1735 14H24.1734C24.1734 19.6186 19.6187 24.1733 14.0001 24.1733C8.38151 24.1733 3.82675 19.6186 3.82675 14H3.82666C3.82414 13.7058 3.58492 13.468 3.29008 13.468C2.99524 13.468 2.75603 13.7058 2.75351 14H2.75342C2.75342 14.0012 2.75342 14.0025 2.75342 14.0038C2.75342 14.004 2.75342 14.0044 2.75342 14.0047C2.75342 14.0052 2.75342 14.0057 2.75342 14.0063C2.75678 20.2147 7.7908 25.2467 14.0001 25.2467C20.2094 25.2467 25.2434 20.2147 25.2467 14.0063C25.2467 14.0057 25.2467 14.0052 25.2467 14.0047C25.2467 14.0044 25.2467 14.004 25.2467 14.0038Z" fill="black"/>
</g>
<defs>
<clipPath id="clip0_695_20389">
<rect width="28" height="28" fill="white"/>
</clipPath>
</defs>
</svg>
